<svg width="178" height="137" viewBox="0 0 178 137" fill="none" xmlns="http://www.w3.org/2000/svg">
<g opacity="0.3">
<path d="M88.0601 47.5999H40.4601C33.8879 47.5999 28.5601 52.9278 28.5601 59.4999V136.85H38.0801V71.3999H91.6301V136.85H101.15V60.6899C101.15 53.4605 95.2895 47.5999 88.0601 47.5999Z" fill="#121212" fill-opacity="0.4"/>
<path d="M101.15 136.85V60.6899C101.15 53.4605 95.2895 47.5999 88.0601 47.5999H40.4601C33.8879 47.5999 28.5601 52.9278 28.5601 59.4999V136.85" stroke="#121212" stroke-opacity="0.8" stroke-width="3.57"/>
<path d="M91.6301 136.85V72.5899C91.6301 71.9327 91.0973 71.3999 90.4401 71.3999H39.2701C38.6129 71.3999 38.0801 71.9327 38.0801 72.59V136.85" stroke="#121212" stroke-opacity="0.8" stroke-width="3.57"/>
<ellipse cx="52.9551" cy="94.6049" rx="2.975" ry="2.975" fill="#121212" fill-opacity="0.8"/>
<ellipse cx="79.135" cy="94.6049" rx="2.975" ry="2.975" fill="#121212" fill-opacity="0.8"/>
<path d="M75.4999 106.968C76.1166 106.741 76.4377 106.053 76.1501 105.462C75.2543 103.622 73.8952 102.037 72.1979 100.868C70.1728 99.4739 67.7655 98.7413 65.307 98.7708C62.8484 98.8004 60.4595 99.5907 58.4684 101.033C56.7997 102.242 55.4792 103.859 54.6278 105.721C54.3545 106.319 54.6921 106.999 55.3141 107.211C55.9361 107.423 56.6058 107.086 56.8939 106.496C57.5764 105.097 58.5945 103.881 59.8647 102.961C61.4576 101.807 63.3688 101.174 65.3356 101.151C67.3024 101.127 69.2282 101.713 70.8484 102.828C72.1404 103.718 73.1874 104.909 73.9033 106.291C74.2056 106.875 74.8832 107.195 75.4999 106.968Z" fill="#121212" fill-opacity="0.8"/>
<path d="M130.186 79.492C150.166 79.492 166.362 63.296 166.362 43.316C166.362 23.336 150.166 7.13997 130.186 7.13997C110.206 7.13997 94.01 23.336 94.01 43.316C94.01 49.9036 95.7718 56.0861 98.8504 61.404L95.8188 77.6832L112.098 74.6516C117.595 77.8317 123.835 79.5016 130.186 79.492Z" fill="white" stroke="#121212" stroke-opacity="0.8" stroke-width="3.57" stroke-linecap="round" stroke-linejoin="round"/>
<path fill-rule="evenodd" clip-rule="evenodd" d="M115.697 44.8143C118.164 42.8075 121.021 41.3369 124.088 40.4962L115.697 44.8143ZM136.377 40.4811C139.467 41.3203 142.346 42.7986 144.828 44.8204L136.377 40.4811ZM130.181 49.2659L130.263 24.99L130.181 49.2659ZM108.29 37.6347C112.805 33.7459 118.28 31.1397 124.145 30.0879L108.29 37.6347ZM136.547 30.1486C142.289 31.2381 147.644 33.82 152.072 37.6347L136.547 30.1486ZM123.001 52.0182C123.49 51.6784 123.997 51.3779 124.519 51.1139L123.001 52.0182ZM135.764 51.0654C136.32 51.3385 136.86 51.6571 137.382 52.0182L135.764 51.0654Z" fill="#121212" fill-opacity="0.8"/>
<path d="M115.697 44.8143C118.164 42.8075 121.021 41.3369 124.088 40.4962M136.377 40.4811C139.467 41.3203 142.346 42.7986 144.828 44.8204M130.181 49.2659L130.263 24.99M108.29 37.6347C112.805 33.7459 118.28 31.1397 124.145 30.0879M136.547 30.1486C142.289 31.2381 147.644 33.82 152.072 37.6347M123.001 52.0182C123.49 51.6784 123.997 51.3779 124.519 51.1139M135.764 51.0654C136.32 51.3385 136.86 51.6571 137.382 52.0182" stroke="#121212" stroke-opacity="0.8" stroke-width="3.57" stroke-linecap="round" stroke-linejoin="round"/>
<path d="M130.181 61.404C131.857 61.404 133.215 60.0454 133.215 58.3695C133.215 56.6936 131.857 55.335 130.181 55.335C128.505 55.335 127.146 56.6936 127.146 58.3695C127.146 60.0454 128.505 61.404 130.181 61.404Z" fill="#121212" fill-opacity="0.8"/>
<rect x="30.9401" y="24.9899" width="8.33" height="17.85" rx="4.165" fill="#121212" fill-opacity="0.2"/>
<rect x="32.1301" y="26.1799" width="5.95" height="15.47" rx="2.975" stroke="#121212" stroke-opacity="0.8" stroke-width="2.38"/>
<rect x="9.52002" y="33.2875" width="8.33" height="17.85" rx="4.165" transform="rotate(-34.5782 9.52002 33.2875)" fill="#121212" fill-opacity="0.2"/>
<rect x="11.1752" y="33.5919" width="5.95" height="15.47" rx="2.975" transform="rotate(-34.5782 11.1752 33.5919)" stroke="#121212" stroke-opacity="0.8" stroke-width="2.38"/>
<rect x="0.00012207" y="57.12" width="8.33" height="17.85" rx="4.165" transform="rotate(-90 0.00012207 57.12)" fill="#121212" fill-opacity="0.2"/>
<rect x="1.19012" y="55.93" width="5.95" height="15.47" rx="2.975" transform="rotate(-90 1.19012 55.93)" stroke="#121212" stroke-opacity="0.8" stroke-width="2.38"/>
</g>
</svg>
